<svg width="32" height="32" viewBox="0 0 32 32" fill="none" xmlns="http://www.w3.org/2000/svg">
<path d="M25.52 10.2933C25.9067 11.2933 26.8667 11.9999 28 11.9999C29.4667 11.9999 30.6667 10.7999 30.6667 9.33325C30.6667 7.86659 29.4667 6.66659 28 6.66659C26.8667 6.66659 25.9067 7.37325 25.52 8.37325C25.4533 8.35992 25.4 8.33325 25.3333 8.33325H20V7.33325C20 6.23992 19.0933 5.33325 18 5.33325H14C12.9067 5.33325 12 6.23992 12 7.33325V8.33325H6.66668C6.60001 8.33325 6.54668 8.35992 6.48001 8.37325C6.09334 7.37325 5.13334 6.66659 4.00001 6.66659C2.53334 6.66659 1.33334 7.86659 1.33334 9.33325C1.33334 10.7999 2.53334 11.9999 4.00001 11.9999C5.13334 11.9999 6.09334 11.2933 6.48001 10.2933C6.54668 10.3066 6.60001 10.3333 6.66668 10.3333H10.0933C7.36001 12.3599 5.66668 15.7199 5.66668 19.3333C5.66668 19.5599 5.68001 19.7733 5.70668 19.9999H5.33334C4.22668 19.9999 3.33334 20.8933 3.33334 21.9999V24.6666C3.33334 25.7733 4.22668 26.6666 5.33334 26.6666H8.00001C8.29334 26.6666 8.56001 26.5999 8.81334 26.4799C9.50668 26.1866 10 25.4799 10 24.6666V21.9999C10 20.8933 9.10668 19.9999 8.00001 19.9999H7.69334C7.69334 19.9599 7.70668 19.9199 7.70668 19.8799C7.68001 19.6933 7.68001 19.5199 7.68001 19.3333C7.68001 16.0399 9.37334 13.0266 12.0267 11.4666C12.08 12.4933 12.9467 13.3333 14 13.3333H18C19.0533 13.3333 19.92 12.4933 19.9867 11.4666C22.64 13.0266 24.3333 16.0533 24.3333 19.3333C24.3333 19.5199 24.32 19.6933 24.3067 19.8799C24.3067 19.9199 24.32 19.9599 24.32 19.9999H24C22.8933 19.9999 22 20.8933 22 21.9999V24.6666C22 25.4799 22.4933 26.1866 23.1867 26.4799C23.44 26.5999 23.7067 26.6666 24 26.6666H26.6667C27.7733 26.6666 28.6667 25.7733 28.6667 24.6666V21.9999C28.6667 20.8933 27.7733 19.9999 26.6667 19.9999H26.2933C26.32 19.7733 26.3333 19.5599 26.3333 19.3333C26.3333 15.7199 24.64 12.3599 21.9067 10.3333H25.3333C25.4 10.3333 25.4533 10.3066 25.52 10.2933Z" fill="#E31B49"/>
</svg>
